<mxfile host="app.diagrams.net" modified="2024-04-06T00:41:47.271Z" agent="Mozilla/5.0 (Windows NT 10.0; Win64; x64) AppleWebKit/537.36 (KHTML, like Gecko) Chrome/123.0.0.0 Safari/537.36 Edg/123.0.0.0" etag="hXrmbhFBcwij54_nNOoN" version="24.2.1" type="github">
  <diagram id="R2lEEEUBdFMjLlhIrx00" name="Page-1">
    <mxGraphModel dx="1002" dy="569" grid="1" gridSize="10" guides="1" tooltips="1" connect="1" arrows="1" fold="1" page="1" pageScale="1" pageWidth="850" pageHeight="1100" math="0" shadow="0" extFonts="Permanent Marker^https://fonts.googleapis.com/css?family=Permanent+Marker">
      <root>
        <mxCell id="0" />
        <mxCell id="1" parent="0" />
        <mxCell id="7TCsUlY0UWKUgK5hBim2-1" value="Producto" style="whiteSpace=wrap;html=1;align=center;" parent="1" vertex="1">
          <mxGeometry x="140" y="260" width="100" height="40" as="geometry" />
        </mxCell>
        <mxCell id="V_IZpNN2CZy9b4twtYZi-1" value="Cliente" style="whiteSpace=wrap;html=1;align=center;" vertex="1" parent="1">
          <mxGeometry x="560" y="310" width="100" height="40" as="geometry" />
        </mxCell>
        <mxCell id="V_IZpNN2CZy9b4twtYZi-2" value="ClienteID" style="ellipse;whiteSpace=wrap;html=1;align=center;fontStyle=4;" vertex="1" parent="1">
          <mxGeometry x="570" y="230" width="100" height="40" as="geometry" />
        </mxCell>
        <mxCell id="V_IZpNN2CZy9b4twtYZi-3" value="Nombre" style="ellipse;whiteSpace=wrap;html=1;align=center;" vertex="1" parent="1">
          <mxGeometry x="680" y="270" width="100" height="40" as="geometry" />
        </mxCell>
        <mxCell id="V_IZpNN2CZy9b4twtYZi-4" value="Apeliido" style="ellipse;whiteSpace=wrap;html=1;align=center;" vertex="1" parent="1">
          <mxGeometry x="670" y="350" width="100" height="40" as="geometry" />
        </mxCell>
        <mxCell id="V_IZpNN2CZy9b4twtYZi-5" value="DOB" style="ellipse;whiteSpace=wrap;html=1;align=center;" vertex="1" parent="1">
          <mxGeometry x="560" y="400" width="100" height="40" as="geometry" />
        </mxCell>
        <mxCell id="V_IZpNN2CZy9b4twtYZi-7" value="&lt;span style=&quot;border-bottom: 1px dotted&quot;&gt;DireccionID&lt;/span&gt;" style="ellipse;whiteSpace=wrap;html=1;align=center;" vertex="1" parent="1">
          <mxGeometry x="470" y="360" width="100" height="40" as="geometry" />
        </mxCell>
      </root>
    </mxGraphModel>
  </diagram>
</mxfile>
